<svg xmlns="http://www.w3.org/2000/svg" viewBox="0 0 512 512">
  <defs>
    <linearGradient id="bg" x1="0" y1="0" x2="0" y2="1">
      <stop offset="0" stop-color="#FBFBFE"/><stop offset="1" stop-color="#E6E9F5"/>
    </linearGradient>
    <linearGradient id="face" x1="0" y1="0" x2="0" y2="1">
      <stop offset="0" stop-color="#6470F5"/><stop offset="1" stop-color="#4B55C6"/>
    </linearGradient>
    <pattern id="hazard" width="68" height="68" patternUnits="userSpaceOnUse" patternTransform="rotate(-45)">
      <rect width="68" height="68" fill="#F6C915"/><rect width="34" height="68" fill="#17171A"/>
    </pattern>
    <clipPath id="platen"><rect x="66" y="218" width="380" height="74" rx="8"/></clipPath>
  </defs>
  <rect x="16" y="16" width="480" height="480" rx="104" fill="url(#bg)"/>
  <g fill="#17171A">
    <rect x="196" y="34" width="44" height="118" rx="14"/>
    <rect x="272" y="34" width="44" height="118" rx="14"/>
    <rect x="176" y="150" width="160" height="42" rx="12"/>
    <rect x="44" y="196" width="424" height="118" rx="20"/>
  </g>
  <g clip-path="url(#platen)"><rect x="66" y="218" width="380" height="74" fill="url(#hazard)"/></g>
  <ellipse cx="256" cy="464" rx="144" ry="24" fill="#5865F2" opacity="0.45"/>
  <rect x="132" y="356" width="248" height="104" rx="52" fill="url(#face)"/>
  <ellipse cx="216" cy="408" rx="19" ry="24" fill="#2B2F63"/>
  <ellipse cx="296" cy="408" rx="19" ry="24" fill="#2B2F63"/>
</svg>